# xmcd
#
# Track frame offsets:
#	180
#	28600
#	39435
#	72455
#	94163
#	108390
#	137484
#	149118
#	174410
#	185007
#	231201
#	277331
#	294656
#
# Disc length: 4339 seconds
#
# Revision: 4
# Processed by: cddbd v1.4PL0 Copyright (c) Steve Scherf et al.
# Submitted via: audiograbber 1.80
#
DISCID=cd10f10d
DTITLE=Various Artist - Radio Nova-Original Funk
DYEAR=1900
DGENRE=
TTITLE0=Donald Harrison  - hu-tay-nay
TTITLE1=Lee Dorsey  - Get Out Of My Life Woman
TTITLE2=Walter "Wolfman" Washington - Get On Up
TTITLE3=Champion "Jack" Dupree and Wild Magnolias  - Yella Pocahontas
TTITLE4=Allen Toussaint  - Everything I Do Gonna Be Funky
TTITLE5=Soul Rebels  - Rebel Zone
TTITLE6=The Meters  - Chicken Strut
TTITLE7=Rebirth Brass Band - Feel Like Funkin' It Up
TTITLE8=Clarence "Frogman" Henry - Ain't Got No Home
TTITLE9=Bluesiana  - Shoo Fly Don't Bother Me
TTITLE10=Treme Brass Band  - Gimme My Money Back
TTITLE11=Ernie K - Doe
TTITLE12=Charles Brown  - A Virus Called The Blues
EXTD=
EXTT0=
EXTT1=
EXTT2=
EXTT3=
EXTT4=
EXTT5=
EXTT6=
EXTT7=
EXTT8=
EXTT9=
EXTT10=
EXTT11=
EXTT12=
PLAYORDER=
